<svg xmlns:xlink="http://www.w3.org/1999/xlink" width="24" xmlns="http://www.w3.org/2000/svg" height="24" id="screenshot-9d08f665-3118-80be-8001-aa02ecc366fc" viewBox="0 0 24 24" style="-webkit-print-color-adjust: exact;" fill="none" version="1.1"><g xmlns:xlink="http://www.w3.org/1999/xlink" width="24" xml:space="preserve" height="24" id="shape-9d08f665-3118-80be-8001-aa02ecc366fc" baseProfile="full" style="fill: rgb(0, 0, 0);" ry="0" rx="0" version="1.1" enable-background="new 0 0 24.00 24.00"><g id="shape-9d08f665-3118-80be-8001-aa02ecc4b9ca"><g id="fills-9d08f665-3118-80be-8001-aa02ecc4b9ca"><rect width="24" height="24" x="0" transform="matrix(1,0,0,1,0,0)" style="fill: none;" ry="0" fill="none" rx="0" y="0"/></g></g><g id="shape-9d08f665-3118-80be-8001-aa02ecc8bd76"><g id="fills-9d08f665-3118-80be-8001-aa02ecc8bd76"><path stroke-linejoin="round" rx="0" ry="0" d="M18,19C18,20.657,16.657,22,15,22L8,22C6.343,22,5,20.657,5,19L5,7L4,7L4,4L8.5,4L9.5,3L13.5,3L14.5,4L19,4L19,7L18,7L18,19ZZM6,7L6,19C6,20.105,6.895,21,8,21L15,21C16.105,21,17,20.105,17,19L17,7L6,7ZZM18,6L18,5L14,5L13,4L10,4L9,5L5,5L5,6L18,6ZZM8,9L9,9L9,19L8,19L8,9ZZM14,9L15,9L15,19L14,19L14,9ZZ" style="fill: rgb(0, 0, 0); fill-opacity: 1;"/></g><g id="strokes-9d08f665-3118-80be-8001-aa02ecc8bd76"><g class="stroke-shape"><path stroke-linejoin="round" rx="0" ry="0" d="M18,19C18,20.657,16.657,22,15,22L8,22C6.343,22,5,20.657,5,19L5,7L4,7L4,4L8.5,4L9.5,3L13.5,3L14.5,4L19,4L19,7L18,7L18,19ZZM6,7L6,19C6,20.105,6.895,21,8,21L15,21C16.105,21,17,20.105,17,19L17,7L6,7ZZM18,6L18,5L14,5L13,4L10,4L9,5L5,5L5,6L18,6ZZM8,9L9,9L9,19L8,19L8,9ZZM14,9L15,9L15,19L14,19L14,9ZZ" style="fill: none; stroke-width: 0.2;"/></g></g></g></g></svg>
