<svg xmlns:xlink="http://www.w3.org/1999/xlink" width="24" xmlns="http://www.w3.org/2000/svg" height="24" id="screenshot-9d08f665-3118-80be-8001-aa02bfc78a9b" viewBox="0 0 24 24" style="-webkit-print-color-adjust: exact;" fill="none" version="1.1"><g xmlns:xlink="http://www.w3.org/1999/xlink" width="24" xml:space="preserve" height="24" id="shape-9d08f665-3118-80be-8001-aa02bfc78a9b" baseProfile="full" style="fill: rgb(0, 0, 0);" ry="0" rx="0" version="1.1" enable-background="new 0 0 24.00 24.00"><g id="shape-9d08f665-3118-80be-8001-aa02bfc83f5c"><g id="fills-9d08f665-3118-80be-8001-aa02bfc83f5c"><rect width="24" height="24" x="0" transform="matrix(1,0,0,1,0,0)" style="fill: none;" ry="0" fill="none" rx="0" y="0"/></g></g><g id="shape-9d08f665-3118-80be-8001-aa02bfca6549"><g id="fills-9d08f665-3118-80be-8001-aa02bfca6549"><path stroke-linejoin="round" rx="0" ry="0" d="M19.706,8.042L17.374,10.374L13.624,6.624L15.956,4.292C16.347,3.901,16.98,3.901,17.37,4.292L19.706,6.628C20.097,7.018,20.097,7.651,19.706,8.042ZZM2.999,17.248L13.064,7.184L16.814,10.934L6.749,20.998L2.999,20.998L2.999,17.248ZZM16.621,5.044L15.082,6.583L17.418,8.918L18.957,7.379L16.621,5.044ZZM15.357,10.979L13.022,8.643L4,17.664L4,20L6.336,20L15.357,10.979ZZ" style="fill: rgb(0, 0, 0); fill-opacity: 1;"/></g><g id="strokes-9d08f665-3118-80be-8001-aa02bfca6549"><g class="stroke-shape"><path stroke-linejoin="round" rx="0" ry="0" d="M19.706,8.042L17.374,10.374L13.624,6.624L15.956,4.292C16.347,3.901,16.98,3.901,17.37,4.292L19.706,6.628C20.097,7.018,20.097,7.651,19.706,8.042ZZM2.999,17.248L13.064,7.184L16.814,10.934L6.749,20.998L2.999,20.998L2.999,17.248ZZM16.621,5.044L15.082,6.583L17.418,8.918L18.957,7.379L16.621,5.044ZZM15.357,10.979L13.022,8.643L4,17.664L4,20L6.336,20L15.357,10.979ZZ" style="fill: none; stroke-width: 0.2;"/></g></g></g></g></svg>